<svg xmlns="http://www.w3.org/2000/svg" xmlns:xlink="http://www.w3.org/1999/xlink" width="2457" zoomAndPan="magnify" viewBox="0 0 1842.75 464.999988" height="620" preserveAspectRatio="xMidYMid meet" version="1.0"><defs><g/><clipPath id="cc9c8934f8"><rect x="0" width="991" y="0" height="374"/></clipPath></defs><path fill="#ffffff" d="M 525.316406 264.964844 C 525.316406 229.820312 498.257812 201.011719 463.839844 198.199219 C 457.535156 137.203125 405.988281 89.632812 343.332031 89.632812 C 280.929688 89.632812 229.5625 136.820312 222.917969 197.460938 C 188.09375 200.058594 160.644531 229.121094 160.644531 264.613281 C 160.644531 301.816406 190.800781 331.976562 228 331.976562 L 464.492188 331.976562 L 464.492188 331.679688 C 498.597656 328.558594 525.316406 299.886719 525.316406 264.964844 " fill-opacity="1" fill-rule="nonzero"/><path fill="#ffffff" d="M 192.359375 110.179688 C 195.34375 113.273438 198.328125 115.648438 200.8125 117.390625 C 177.304688 146.230469 162.359375 182.289062 159.761719 221.65625 C 154.210938 229.808594 150.425781 239.035156 149.042969 248.898438 C 148.988281 249.035156 148.90625 249.175781 148.878906 249.339844 C 148.464844 244.257812 148.214844 239.144531 148.214844 233.953125 C 148.214844 187.039062 164.789062 143.9375 192.359375 110.179688 " fill-opacity="1" fill-rule="nonzero"/><path fill="#ffffff" d="M 540.160156 233.953125 C 540.160156 237.515625 540.023438 241.050781 539.828125 244.5625 C 537.398438 236.21875 533.585938 228.425781 528.640625 221.546875 C 522.234375 125.34375 441.980469 49.007812 344.1875 49.007812 C 317.28125 49.007812 291.726562 54.785156 268.660156 65.171875 L 256.5625 58.679688 C 282.945312 45.417969 312.695312 37.957031 344.1875 37.957031 C 452.230469 37.957031 540.160156 125.898438 540.160156 233.953125 " fill-opacity="1" fill-rule="nonzero"/><path fill="#ffffff" d="M 342.976562 366.636719 C 339.636719 366.636719 336.902344 363.929688 336.902344 360.558594 C 336.902344 357.214844 339.636719 354.480469 342.976562 354.480469 C 346.320312 354.480469 349.054688 357.214844 349.054688 360.558594 C 349.054688 363.929688 346.320312 366.636719 342.976562 366.636719 M 347.121094 349.09375 C 345.824219 348.597656 344.441406 348.347656 342.976562 348.347656 C 341.515625 348.347656 340.132812 348.597656 338.835938 349.09375 C 334.136719 350.777344 330.769531 355.28125 330.769531 360.558594 C 330.769531 367.300781 336.238281 372.796875 342.976562 372.796875 C 349.71875 372.796875 355.1875 367.300781 355.1875 360.558594 C 355.1875 355.28125 351.820312 350.777344 347.121094 349.09375 " fill-opacity="1" fill-rule="nonzero"/><path fill="#ffffff" d="M 373.820312 249.636719 C 370.46875 249.636719 367.742188 252.367188 367.742188 255.714844 C 367.742188 259.070312 370.46875 261.796875 373.820312 261.796875 C 377.175781 261.796875 379.902344 259.070312 379.902344 255.714844 C 379.902344 252.367188 377.175781 249.636719 373.820312 249.636719 M 373.820312 267.9375 C 367.085938 267.9375 361.601562 262.457031 361.601562 255.714844 C 361.601562 248.976562 367.085938 243.496094 373.820312 243.496094 C 380.558594 243.496094 386.039062 248.976562 386.039062 255.714844 C 386.039062 262.457031 380.558594 267.9375 373.820312 267.9375 " fill-opacity="1" fill-rule="nonzero"/><path fill="#ffffff" d="M 426.496094 211.820312 C 423.140625 211.820312 420.414062 214.550781 420.414062 217.902344 C 420.414062 221.257812 423.140625 223.984375 426.496094 223.984375 C 429.847656 223.984375 432.574219 221.257812 432.574219 217.902344 C 432.574219 214.550781 429.847656 211.820312 426.496094 211.820312 M 426.496094 230.125 C 419.757812 230.125 414.277344 224.640625 414.277344 217.902344 C 414.277344 211.164062 419.757812 205.683594 426.496094 205.683594 C 433.234375 205.683594 438.714844 211.164062 438.714844 217.902344 C 438.714844 224.640625 433.234375 230.125 426.496094 230.125 " fill-opacity="1" fill-rule="nonzero"/><path fill="#ffffff" d="M 387.289062 399.734375 C 383.945312 399.734375 381.210938 397 381.210938 393.628906 C 381.210938 390.285156 383.945312 387.550781 387.289062 387.550781 C 390.632812 387.550781 393.367188 390.285156 393.367188 393.628906 C 393.367188 397 390.632812 399.734375 387.289062 399.734375 M 391.433594 382.164062 C 390.132812 381.667969 388.753906 381.417969 387.289062 381.417969 C 385.824219 381.417969 384.445312 381.667969 383.144531 382.164062 C 378.449219 383.847656 375.078125 388.351562 375.078125 393.628906 C 375.078125 400.371094 380.546875 405.867188 387.289062 405.867188 C 394.03125 405.867188 399.5 400.371094 399.5 393.628906 C 399.5 388.351562 396.128906 383.847656 391.433594 382.164062 " fill-opacity="1" fill-rule="nonzero"/><path fill="#ffffff" d="M 461.019531 254.164062 C 457.667969 254.164062 454.941406 256.894531 454.941406 260.246094 C 454.941406 263.597656 457.667969 266.324219 461.019531 266.324219 C 464.375 266.324219 467.101562 263.597656 467.101562 260.246094 C 467.101562 256.894531 464.375 254.164062 461.019531 254.164062 M 461.019531 272.46875 C 454.28125 272.46875 448.800781 266.984375 448.800781 260.246094 C 448.800781 253.507812 454.28125 248.023438 461.019531 248.023438 C 467.757812 248.023438 473.238281 253.507812 473.238281 260.246094 C 473.238281 266.984375 467.757812 272.46875 461.019531 272.46875 " fill-opacity="1" fill-rule="nonzero"/><path fill="#ffffff" d="M 174.773438 27.855469 L 243.832031 65.148438 L 296.777344 94.617188 L 343.027344 119.941406 L 353.40625 109.945312 L 377.804688 86.328125 L 392.601562 79.882812 L 410.902344 87.710938 L 424.308594 103.902344 L 431.082031 109.945312 L 423.382812 114.414062 L 413.257812 126.386719 L 407.269531 143.882812 L 404.761719 164.601562 L 398.683594 190.386719 L 388.191406 208.515625 L 374.722656 220.3125 L 364.800781 226.414062 L 336.601562 236.199219 L 321.0625 238.617188 L 310.933594 256.226562 L 295.859375 279.59375 L 284 292.375 L 269.269531 297.898438 L 254.882812 294.445312 L 246.363281 290.417969 L 235.085938 291.222656 L 220.46875 283.96875 L 216.4375 270.734375 L 204.699219 265.089844 L 196.640625 254.847656 L 195.148438 242.417969 L 189.625 232.402344 L 190.773438 227.796875 L 201.820312 220.085938 L 225.1875 218.011719 L 252.695312 213.640625 L 273.066406 202.015625 L 292.171875 190.042969 L 297.925781 181.523438 L 285.5 178.300781 L 270.074219 167.132812 L 260.175781 159.421875 L 247.054688 153.207031 L 238.882812 139.507812 L 227.371094 133.410156 L 217.9375 124.546875 L 211.71875 108.890625 L 202.511719 100.027344 L 191.695312 87.25 L 188.699219 68.832031 L 186.171875 58.933594 L 176.730469 46.960938 L 173.277344 33.839844 Z M 174.773438 27.855469 " fill-opacity="1" fill-rule="nonzero"/><path fill="#223744" d="M 426.0625 109.59375 C 422.285156 111.960938 416.148438 116.753906 413.335938 120.730469 C 410.484375 124.757812 408.351562 129.339844 406.730469 133.84375 C 404.9375 138.816406 404.070312 143.660156 403.429688 149.046875 C 402.804688 154.261719 402.738281 159.050781 402.164062 164.246094 C 400.457031 179.769531 395.3125 195.539062 385.070312 207.503906 C 380.480469 212.867188 373.578125 218.753906 367.785156 222.785156 C 358.664062 229.121094 347.414062 231.835938 336.742188 233.835938 C 334.113281 234.328125 331.464844 234.691406 328.796875 234.886719 C 327.277344 235 325.757812 235.117188 324.226562 235.289062 C 322.566406 235.472656 320.402344 235.960938 318.933594 236.785156 C 317.214844 237.746094 316.53125 238.988281 315.597656 240.675781 C 314.492188 242.683594 313.378906 244.6875 312.25 246.6875 C 310.179688 250.363281 308.917969 252.9375 306.792969 256.585938 C 302.796875 263.445312 299.390625 269.109375 294.847656 275.621094 C 291.351562 280.632812 285.953125 284.980469 281.25 288.933594 C 279.574219 290.339844 277.699219 291.507812 275.640625 292.25 C 272.542969 293.363281 269.222656 294.027344 265.925781 293.863281 C 262.757812 293.703125 259.902344 292.328125 257.402344 290.449219 C 255.648438 289.128906 253.667969 288.15625 251.523438 287.710938 C 249.644531 287.320312 247.691406 287.089844 245.773438 287.164062 C 242.699219 287.253906 239.675781 287.730469 236.589844 287.5625 C 233.542969 287.3125 230.542969 286.265625 228.351562 284.0625 C 228.304688 284.019531 228.261719 283.972656 228.21875 283.925781 C 225.984375 281.609375 225.246094 278.546875 224.167969 275.597656 C 223.351562 273.371094 222.183594 271.292969 220.765625 269.398438 C 219.671875 267.941406 218.554688 266.476562 217.167969 265.289062 C 215.640625 263.984375 213.878906 263.296875 211.921875 262.917969 C 210.371094 262.617188 208.941406 262.019531 207.554688 261.257812 C 204.300781 259.476562 201.855469 256.597656 200.875 253 C 200.367188 251.136719 200.585938 249.25 200.507812 247.355469 C 200.320312 242.90625 198.875 238.492188 196.726562 234.609375 C 196.414062 234.042969 196.078125 233.476562 195.910156 232.851562 C 195.300781 230.59375 197.75 228.097656 199.40625 226.902344 C 201.359375 225.496094 203.765625 223.957031 206.113281 223.496094 C 209.511719 222.832031 212.777344 222.964844 216.210938 222.71875 C 218.472656 222.558594 221.851562 222.394531 224.113281 222.203125 C 230.183594 221.675781 235.804688 220.632812 241.855469 219.871094 C 248.191406 219.070312 253.722656 216.859375 259.707031 214.359375 C 263.234375 212.890625 266.640625 211.113281 269.867188 209.058594 C 280.5 202.292969 285.195312 199.378906 293.390625 192.15625 C 295.179688 190.574219 298.136719 188.875 299.984375 187.222656 C 300.757812 186.535156 302.273438 186.144531 303.285156 186.375 C 307.3125 187.300781 311.457031 187.320312 315.550781 186.996094 C 318.785156 186.742188 322.042969 186.464844 325.136719 185.429688 C 329.601562 183.941406 333.519531 181.175781 336.648438 177.675781 C 339.089844 174.941406 341.078125 171.796875 342.613281 168.472656 C 343.253906 167.082031 342.574219 166.46875 341.648438 167.5625 C 337.742188 172.160156 332.941406 176 327.34375 178.332031 C 324.769531 179.40625 321.992188 179.921875 319.203125 180.074219 C 316.027344 180.246094 312.707031 180.222656 309.550781 179.730469 C 305.4375 179.082031 301.542969 177.511719 297.480469 176.644531 C 293.433594 175.78125 289.292969 175.34375 285.351562 174.042969 C 283.5 173.429688 281.699219 172.632812 280.058594 171.566406 C 277.832031 170.121094 276.863281 167.851562 275.101562 165.976562 C 273.101562 163.84375 270.695312 162.101562 268.226562 160.554688 C 265.476562 158.835938 262.496094 157.890625 259.582031 156.554688 C 253.976562 153.992188 248.640625 150.425781 245.246094 145.15625 C 244.550781 144.078125 243.945312 142.9375 243.453125 141.746094 C 242.53125 139.515625 240.945312 137.183594 238.792969 136.003906 C 234.882812 133.859375 230.9375 132.28125 227.371094 129.523438 C 223.941406 126.875 220.585938 123.589844 218.765625 119.597656 C 217.539062 116.898438 217.003906 113.878906 216.359375 111 C 215.738281 108.445312 214.390625 106.066406 212.5 104.234375 C 211.527344 103.300781 210.378906 102.59375 209.324219 101.753906 C 208.058594 100.742188 206.867188 99.640625 205.679688 98.535156 C 202.46875 95.546875 199.550781 92.207031 197.328125 88.410156 C 196.652344 87.257812 196.042969 86.066406 195.507812 84.839844 C 195.085938 83.875 194.707031 82.882812 194.398438 81.871094 C 193.960938 80.445312 193.574219 78.976562 193.269531 77.496094 C 192.730469 74.886719 192.71875 72.214844 192.613281 69.5625 C 192.515625 67.058594 192.472656 64.226562 191.460938 61.894531 C 190.648438 60.011719 189.082031 58.5625 187.886719 56.933594 C 186.503906 55.050781 185.207031 53.109375 184.011719 51.105469 C 182.183594 48.03125 180.585938 44.808594 179.355469 41.449219 C 178.683594 39.621094 178.113281 37.75 177.722656 35.84375 C 177.601562 35.261719 178.203125 34.988281 178.746094 35.242188 C 184.585938 37.960938 267.71875 83.191406 267.71875 83.191406 C 267.71875 83.191406 312.832031 107.496094 338.617188 121.996094 C 357.351562 132.53125 365.351562 143.457031 368.324219 148.644531 C 368.640625 149.195312 369.5 148.867188 369.378906 148.242188 C 366.847656 135.4375 356.171875 124.484375 353.3125 121.996094 C 352.957031 121.683594 350.449219 119.710938 350.722656 119.324219 C 357.0625 110.304688 360.535156 106.09375 368.335938 98.351562 C 371.320312 95.386719 381.132812 88.261719 385.039062 86.6875 C 393.097656 83.445312 403.746094 85.007812 410.9375 90.1875 C 415.359375 93.371094 418.183594 98.804688 421.457031 102.988281 C 422.675781 104.546875 424.910156 106.746094 426.265625 108.246094 C 426.644531 108.660156 426.535156 109.292969 426.0625 109.59375 M 435.195312 108.726562 C 435.195312 108.726562 431.398438 105.617188 429.960938 103.773438 C 427.839844 101.0625 425.796875 98.285156 423.769531 95.5 C 420.34375 90.789062 416.636719 86.101562 411.574219 83.054688 C 406.546875 80.027344 400.671875 78.347656 394.8125 78.191406 C 390.476562 78.074219 386.105469 78.808594 382.109375 80.511719 C 373.847656 84.035156 366.789062 90.210938 360.546875 96.539062 C 355.4375 101.714844 350.71875 107.300781 346.378906 113.136719 C 346.308594 113.238281 345.371094 114.496094 344.769531 115.328125 C 344.488281 115.71875 343.949219 115.796875 343.558594 115.511719 C 339.863281 112.8125 335.582031 110.753906 331.582031 108.613281 C 325.230469 105.214844 318.804688 101.949219 312.371094 98.714844 C 304.855469 94.941406 297.257812 91.335938 289.824219 87.398438 C 281.484375 82.980469 273.207031 78.4375 264.898438 73.957031 C 264.757812 73.882812 264.617188 73.800781 264.472656 73.730469 C 261.421875 72.117188 258.394531 70.515625 255.347656 68.902344 C 252.996094 67.3125 250.320312 66.101562 247.8125 64.738281 C 245.109375 63.292969 242.410156 61.835938 239.71875 60.386719 C 238.199219 59.570312 236.683594 58.75 235.164062 57.933594 L 225.679688 52.820312 C 222.261719 51.113281 218.933594 49.183594 215.566406 47.371094 C 214.003906 46.585938 212.480469 45.699219 210.941406 44.871094 C 210.152344 44.445312 209.363281 44.019531 208.578125 43.59375 C 208.359375 43.476562 206.5 42.621094 206.5 42.488281 C 203.539062 41.015625 200.753906 38.96875 197.941406 37.207031 C 194.902344 35.308594 191.863281 33.410156 188.824219 31.507812 C 184.140625 28.578125 179.453125 25.558594 174.503906 23.085938 C 172.734375 22.1875 167.933594 19.949219 168.167969 23.878906 C 168.398438 29.957031 169.160156 35.835938 171.035156 41.640625 C 172.566406 46.382812 174.664062 50.933594 177.214844 55.210938 C 179.042969 58.269531 181.097656 61.203125 183.398438 63.921875 C 183.476562 64.015625 183.554688 64.109375 183.632812 64.199219 C 184.964844 65.753906 186.089844 68.679688 186.167969 70.726562 C 187.160156 96.296875 201.179688 106.179688 206.980469 109.585938 C 208.035156 110.203125 208.785156 111.246094 208.96875 112.453125 C 211.773438 130.746094 224.292969 138.082031 230.964844 140.730469 C 233.449219 141.71875 235.375 143.664062 236.484375 146.09375 C 237.226562 147.71875 238.160156 149.273438 239.074219 150.742188 C 241.832031 155.160156 246.148438 158.253906 250.832031 160.382812 C 253.921875 161.78125 257.285156 162.835938 260.320312 164.460938 C 263.738281 166.296875 265.929688 168.933594 268.304688 171.914062 C 271.164062 175.507812 274.808594 178.429688 278.910156 180.484375 C 283 182.53125 287.261719 183.019531 291.636719 183.746094 C 292.40625 183.875 292.65625 184.859375 292.035156 185.335938 C 285.652344 190.222656 264.535156 205.828125 249.460938 210.667969 C 243.445312 212.597656 237.183594 213.71875 230.910156 214.394531 C 226.136719 214.90625 221.332031 215.152344 216.53125 215.191406 C 215.464844 215.199219 214.398438 215.144531 213.332031 215.113281 C 208.570312 214.984375 204.191406 215.792969 199.851562 217.75 C 196.699219 219.171875 193.734375 221.003906 190.988281 223.105469 C 182.804688 229.363281 189.132812 237.726562 192.09375 240.835938 C 193.273438 242.074219 192.941406 243.515625 192.398438 244.933594 C 190.5625 249.714844 192.804688 256.101562 195.253906 260.332031 C 197.277344 263.835938 200.179688 266.757812 203.589844 268.921875 C 206.222656 270.589844 209.128906 271.828125 212.140625 272.625 C 213.957031 273.113281 215.21875 274.699219 215.355469 276.578125 C 215.945312 284.792969 222.035156 289.703125 222.035156 289.703125 C 231.195312 297.6875 241.824219 296.308594 247.128906 294.960938 C 248.875 294.503906 250.714844 294.945312 252.0625 296.148438 C 255.234375 298.960938 262.636719 303.160156 276.851562 299.757812 C 294.75 295.496094 315.878906 254.746094 320.554688 245.308594 C 321.171875 244.070312 322.324219 243.199219 323.679688 242.9375 C 331.421875 241.433594 340.285156 239.90625 347.667969 237.933594 C 355.675781 235.796875 361.046875 233.472656 368.382812 229.53125 C 375.675781 225.613281 383.054688 220.011719 388.613281 213.839844 C 393.972656 207.894531 398.238281 200.992188 401.578125 193.730469 C 403.285156 190.015625 404.753906 186.1875 405.984375 182.289062 C 409.851562 170 408.910156 157.082031 410.976562 144.496094 C 411.367188 142.144531 411.886719 139.820312 412.589844 137.542969 C 413.914062 133.226562 415.703125 129.007812 418.167969 125.207031 C 419.589844 123.011719 421.3125 120.582031 423.488281 119.046875 C 423.488281 119.046875 428.21875 114.484375 434.042969 112.8125 C 439.054688 111.371094 435.195312 108.726562 435.195312 108.726562 " fill-opacity="1" fill-rule="nonzero"/><path fill="#223744" d="M 403.574219 104.394531 C 403.574219 107.730469 400.871094 110.4375 397.53125 110.4375 C 394.195312 110.4375 391.488281 107.730469 391.488281 104.394531 C 391.488281 101.058594 394.195312 98.351562 397.53125 98.351562 C 400.871094 98.351562 403.574219 101.058594 403.574219 104.394531 " fill-opacity="1" fill-rule="nonzero"/><path fill="#ffffff" d="M 297.699219 412.96875 C 252.875 401.308594 214.617188 373.203125 189.75 335.515625 C 182.140625 332.34375 175.261719 327.847656 169.339844 322.308594 C 195.566406 374.007812 244.023438 412.601562 302.0625 425.375 C 300.152344 421.46875 298.664062 417.316406 297.699219 412.96875 " fill-opacity="1" fill-rule="nonzero"/><path fill="#ffffff" d="M 347.117188 331.824219 L 347.121094 349.976562 C 347.121094 352.269531 345.269531 354.121094 342.976562 354.121094 C 340.6875 354.121094 338.835938 352.269531 338.835938 349.976562 L 338.828125 331.824219 Z M 347.117188 331.824219 " fill-opacity="1" fill-rule="nonzero"/><path fill="#ffffff" d="M 391.425781 331.753906 L 391.433594 382.992188 C 391.433594 385.285156 389.582031 387.136719 387.289062 387.136719 C 384.996094 387.136719 383.144531 385.285156 383.144531 382.992188 L 383.140625 331.753906 Z M 391.425781 331.753906 " fill-opacity="1" fill-rule="nonzero"/><path fill="#ffffff" d="M 435.214844 331.726562 L 435.21875 367.273438 C 435.21875 369.566406 433.367188 371.417969 431.074219 371.417969 C 428.78125 371.417969 426.929688 369.566406 426.929688 367.273438 L 426.925781 331.726562 Z M 435.214844 331.726562 " fill-opacity="1" fill-rule="nonzero"/><path fill="#ffffff" d="M 469.777344 330.96875 L 461.214844 348.429688 C 460.496094 349.894531 459.03125 350.75 457.511719 350.75 C 456.878906 350.75 456.269531 350.613281 455.6875 350.335938 C 453.617188 349.3125 452.789062 346.828125 453.78125 344.785156 L 460.1875 331.6875 L 463.980469 331.675781 L 464.496094 331.671875 C 466.265625 331.503906 468.039062 331.300781 469.777344 330.96875 " fill-opacity="1" fill-rule="nonzero"/><path fill="#ffffff" d="M 312.253906 331.859375 L 312.257812 391.140625 C 312.257812 393.40625 310.410156 395.285156 308.117188 395.285156 C 305.824219 395.285156 303.972656 393.40625 303.972656 391.140625 L 303.964844 331.859375 Z M 312.253906 331.859375 " fill-opacity="1" fill-rule="nonzero"/><path fill="#ffffff" d="M 497.484375 355.824219 C 497.558594 355.730469 497.628906 355.636719 497.703125 355.546875 C 499.351562 353.472656 500.972656 351.378906 502.535156 349.238281 C 502.507812 349.238281 502.480469 349.238281 502.453125 349.238281 C 509.027344 340.230469 514.894531 330.671875 519.878906 320.597656 C 513.796875 326.464844 506.695312 331.3125 499.023438 334.839844 C 488.777344 350.515625 476.21875 364.546875 461.84375 376.449219 C 461.832031 376.457031 461.820312 376.46875 461.8125 376.476562 C 457.765625 379.824219 453.574219 383 449.25 386 C 449.140625 386.074219 449.035156 386.152344 448.929688 386.222656 C 446.792969 387.699219 444.628906 389.128906 442.433594 390.511719 C 442.367188 390.558594 442.292969 390.597656 442.226562 390.644531 C 440.09375 391.984375 437.921875 393.28125 435.734375 394.539062 C 435.605469 394.609375 435.480469 394.6875 435.351562 394.757812 C 433.1875 395.992188 430.996094 397.175781 428.78125 398.324219 C 428.460938 398.484375 428.144531 398.648438 427.824219 398.808594 C 425.648438 399.921875 423.457031 400.996094 421.230469 402.019531 C 421.1875 402.042969 421.144531 402.0625 421.101562 402.082031 C 418.902344 403.09375 416.675781 404.046875 414.429688 404.976562 C 413.941406 405.179688 413.453125 405.375 412.957031 405.574219 C 410.761719 406.460938 408.550781 407.3125 406.3125 408.113281 C 406.003906 408.226562 405.6875 408.328125 405.375 408.4375 C 403.414062 409.128906 401.4375 409.78125 399.445312 410.40625 C 381.988281 415.890625 363.433594 418.863281 344.1875 418.863281 C 328.210938 418.863281 312.710938 416.804688 297.917969 412.980469 C 297.917969 412.976562 297.914062 412.972656 297.914062 412.972656 C 253.089844 401.3125 214.828125 373.207031 189.960938 335.515625 C 182.351562 332.34375 175.476562 327.851562 169.550781 322.3125 C 177.472656 337.925781 187.453125 352.316406 199.082031 365.1875 C 198.992188 365.183594 198.898438 365.179688 198.808594 365.171875 C 234.703125 404.890625 286.566406 429.902344 344.1875 429.902344 C 361.6875 429.902344 378.644531 427.574219 394.796875 423.25 C 394.789062 423.265625 394.785156 423.28125 394.777344 423.292969 C 395.148438 423.195312 395.507812 423.070312 395.878906 422.96875 C 398.554688 422.234375 401.207031 421.445312 403.835938 420.601562 C 404.625 420.347656 405.417969 420.085938 406.203125 419.824219 C 408.871094 418.929688 411.515625 417.988281 414.128906 416.984375 C 414.804688 416.730469 415.472656 416.457031 416.140625 416.191406 C 418.851562 415.117188 421.539062 414 424.1875 412.8125 C 424.648438 412.605469 425.101562 412.378906 425.5625 412.171875 C 428.136719 410.992188 430.675781 409.757812 433.1875 408.472656 C 433.554688 408.285156 433.921875 408.113281 434.28125 407.925781 C 436.953125 406.535156 439.578125 405.070312 442.179688 403.5625 C 442.664062 403.28125 443.15625 403.003906 443.640625 402.714844 C 446.171875 401.21875 448.664062 399.65625 451.121094 398.046875 C 451.617188 397.722656 452.113281 397.398438 452.609375 397.070312 C 455.066406 395.429688 457.480469 393.738281 459.855469 391.996094 C 460.285156 391.679688 460.71875 391.359375 461.148438 391.035156 C 463.570312 389.226562 465.953125 387.367188 468.292969 385.453125 C 468.59375 385.207031 468.886719 384.953125 469.183594 384.703125 C 471.640625 382.664062 474.054688 380.574219 476.40625 378.421875 C 476.453125 378.382812 476.492188 378.335938 476.539062 378.296875 C 481.53125 373.714844 486.285156 368.871094 490.78125 363.796875 C 490.867188 363.699219 490.957031 363.605469 491.042969 363.507812 C 493.253906 361.003906 495.398438 358.441406 497.484375 355.824219 " fill-opacity="1" fill-rule="nonzero"/><path fill="#223744" d="M 373.832031 261.800781 C 370.460938 261.800781 367.753906 259.066406 367.753906 255.722656 C 367.753906 252.378906 370.460938 249.644531 373.832031 249.644531 C 377.171875 249.644531 379.90625 252.378906 379.90625 255.722656 C 379.90625 259.066406 377.171875 261.800781 373.832031 261.800781 M 373.832031 243.511719 C 367.089844 243.511719 361.59375 248.980469 361.59375 255.722656 C 361.59375 261 364.960938 265.503906 369.6875 267.1875 C 370.984375 267.683594 372.367188 267.933594 373.832031 267.933594 C 375.292969 267.933594 376.675781 267.683594 377.972656 267.1875 C 382.671875 265.503906 386.039062 261 386.039062 255.722656 C 386.039062 248.980469 380.570312 243.511719 373.832031 243.511719 " fill-opacity="1" fill-rule="nonzero"/><path fill="#223744" d="M 426.484375 223.976562 C 423.140625 223.976562 420.40625 221.269531 420.40625 217.898438 C 420.40625 214.558594 423.140625 211.820312 426.484375 211.820312 C 429.855469 211.820312 432.5625 214.558594 432.5625 217.898438 C 432.5625 221.269531 429.855469 223.976562 426.484375 223.976562 M 426.484375 205.6875 C 419.742188 205.6875 414.273438 211.160156 414.273438 217.898438 C 414.273438 223.148438 417.589844 227.652344 422.257812 229.335938 C 423.582031 229.835938 424.992188 230.109375 426.484375 230.109375 C 427.894531 230.109375 429.273438 229.863281 430.542969 229.394531 C 435.296875 227.734375 438.722656 223.230469 438.722656 217.898438 C 438.722656 211.160156 433.222656 205.6875 426.484375 205.6875 " fill-opacity="1" fill-rule="nonzero"/><path fill="#223744" d="M 454.9375 260.253906 C 454.9375 256.882812 457.671875 254.175781 461.015625 254.175781 C 464.386719 254.175781 467.09375 256.882812 467.09375 260.253906 C 467.09375 263.597656 464.386719 266.332031 461.015625 266.332031 C 457.671875 266.332031 454.9375 263.597656 454.9375 260.253906 M 461.015625 248.015625 C 454.273438 248.015625 448.804688 253.511719 448.804688 260.253906 C 448.804688 266.996094 454.273438 272.464844 461.015625 272.464844 C 461.347656 272.464844 461.679688 272.464844 461.980469 272.410156 C 464.910156 272.1875 467.5625 270.917969 469.550781 268.984375 C 471.816406 266.773438 473.226562 263.679688 473.226562 260.253906 C 473.226562 253.511719 467.757812 248.015625 461.015625 248.015625 " fill-opacity="1" fill-rule="nonzero"/><path fill="#223744" d="M 377.972656 266.300781 L 377.972656 295.78125 C 377.972656 298.074219 376.09375 299.925781 373.832031 299.925781 L 347.117188 299.925781 L 347.117188 331.824219 L 338.828125 331.824219 L 338.828125 295.78125 C 338.828125 293.515625 340.679688 291.636719 342.972656 291.636719 L 369.6875 291.636719 L 369.6875 266.300781 C 369.6875 264.007812 371.539062 262.15625 373.832031 262.15625 C 376.09375 262.15625 377.972656 264.007812 377.972656 266.300781 " fill-opacity="1" fill-rule="nonzero"/><path fill="#223744" d="M 430.542969 228.371094 L 430.542969 273.292969 C 430.542969 274.398438 430.101562 275.449219 429.328125 276.25 L 391.425781 314.128906 L 391.425781 331.753906 L 383.140625 331.753906 L 383.140625 312.414062 C 383.140625 311.308594 383.582031 310.257812 384.355469 309.484375 L 422.257812 271.582031 L 422.257812 228.371094 C 422.257812 226.078125 424.109375 224.226562 426.402344 224.226562 C 428.695312 224.226562 430.542969 226.078125 430.542969 228.371094 " fill-opacity="1" fill-rule="nonzero"/><path fill="#223744" d="M 435.214844 302.386719 L 435.214844 331.726562 L 426.925781 331.726562 L 426.925781 302.386719 C 426.925781 300.09375 428.804688 298.242188 431.070312 298.242188 C 433.363281 298.242188 435.214844 300.09375 435.214844 302.386719 " fill-opacity="1" fill-rule="nonzero"/><path fill="#223744" d="M 484.082031 301.75 L 469.800781 330.953125 C 468.058594 331.257812 466.292969 331.503906 464.496094 331.671875 L 460.1875 331.6875 L 475.738281 299.953125 L 461.980469 272.410156 L 461.816406 272.105469 C 460.792969 270.0625 461.625 267.574219 463.667969 266.550781 C 465.710938 265.53125 468.226562 266.359375 469.246094 268.402344 L 469.550781 268.984375 L 484.082031 298.074219 C 484.636719 299.234375 484.664062 300.589844 484.082031 301.75 " fill-opacity="1" fill-rule="nonzero"/><path fill="#223744" d="M 312.253906 304.652344 L 312.253906 331.859375 L 303.964844 331.859375 L 303.964844 304.652344 C 303.964844 302.359375 305.816406 300.507812 308.109375 300.507812 C 310.402344 300.507812 312.253906 302.359375 312.253906 304.652344 " fill-opacity="1" fill-rule="nonzero"/><path fill="#ffffff" d="M 286.09375 331.898438 L 277.808594 331.898438 L 277.808594 336.574219 C 277.808594 336.609375 277.792969 336.648438 277.792969 336.691406 L 277.792969 364.0625 C 277.792969 366.21875 279.652344 367.972656 281.9375 367.972656 C 284.226562 367.972656 286.082031 366.21875 286.082031 364.0625 L 286.082031 337.921875 L 286.09375 337.921875 Z M 286.09375 331.898438 " fill-opacity="1" fill-rule="nonzero"/><g transform="matrix(1, 0, 0, 1, 590, 53)"><g clip-path="url(#cc9c8934f8)"><g fill="#ffffff" fill-opacity="1"><g transform="translate(0.904575, 130.572023)"><g><path d="M 4.671875 -58.828125 C 4.078125 -59.753906 3.523438 -61.015625 3.015625 -62.609375 C 2.515625 -64.210938 2.265625 -65.898438 2.265625 -67.671875 C 2.265625 -70.953125 3 -73.304688 4.46875 -74.734375 C 5.945312 -76.171875 7.863281 -76.890625 10.21875 -76.890625 L 65.265625 -76.890625 C 65.859375 -75.960938 66.40625 -74.695312 66.90625 -73.09375 C 67.414062 -71.5 67.671875 -69.816406 67.671875 -68.046875 C 67.671875 -64.765625 66.929688 -62.40625 65.453125 -60.96875 C 63.984375 -59.539062 62.070312 -58.828125 59.71875 -58.828125 L 45.703125 -58.828125 L 45.703125 -0.5 C 44.773438 -0.25 43.320312 0 41.34375 0.25 C 39.363281 0.5 37.40625 0.625 35.46875 0.625 C 33.539062 0.625 31.835938 0.476562 30.359375 0.1875 C 28.890625 -0.101562 27.648438 -0.628906 26.640625 -1.390625 C 25.628906 -2.148438 24.867188 -3.203125 24.359375 -4.546875 C 23.859375 -5.890625 23.609375 -7.65625 23.609375 -9.84375 L 23.609375 -58.828125 Z M 4.671875 -58.828125 "/></g></g></g><g fill="#ffffff" fill-opacity="1"><g transform="translate(67.900544, 130.572023)"><g><path d="M 6.5625 -60.46875 C 7.40625 -60.726562 8.726562 -60.984375 10.53125 -61.234375 C 12.34375 -61.484375 14.21875 -61.609375 16.15625 -61.609375 C 18.007812 -61.609375 19.671875 -61.484375 21.140625 -61.234375 C 22.617188 -60.984375 23.863281 -60.476562 24.875 -59.71875 C 25.882812 -58.957031 26.660156 -57.925781 27.203125 -56.625 C 27.753906 -55.320312 28.03125 -53.617188 28.03125 -51.515625 L 28.03125 -24.359375 C 28.03125 -20.910156 28.867188 -18.445312 30.546875 -16.96875 C 32.234375 -15.5 34.675781 -14.765625 37.875 -14.765625 C 39.8125 -14.765625 41.390625 -14.929688 42.609375 -15.265625 C 43.828125 -15.609375 44.773438 -15.945312 45.453125 -16.28125 L 45.453125 -60.46875 C 46.296875 -60.726562 47.617188 -60.984375 49.421875 -61.234375 C 51.234375 -61.484375 53.109375 -61.609375 55.046875 -61.609375 C 56.898438 -61.609375 58.5625 -61.484375 60.03125 -61.234375 C 61.5 -60.984375 62.738281 -60.476562 63.75 -59.71875 C 64.757812 -58.957031 65.535156 -57.925781 66.078125 -56.625 C 66.628906 -55.320312 66.90625 -53.617188 66.90625 -51.515625 L 66.90625 -13.125 C 66.90625 -8.914062 65.140625 -5.757812 61.609375 -3.65625 C 58.660156 -1.8125 55.144531 -0.40625 51.0625 0.5625 C 46.976562 1.53125 42.539062 2.015625 37.75 2.015625 C 33.207031 2.015625 29.019531 1.507812 25.1875 0.5 C 21.351562 -0.507812 18.046875 -2.066406 15.265625 -4.171875 C 12.492188 -6.273438 10.347656 -8.988281 8.828125 -12.3125 C 7.316406 -15.632812 6.5625 -19.648438 6.5625 -24.359375 Z M 6.5625 -60.46875 "/></g></g></g><g fill="#ffffff" fill-opacity="1"><g transform="translate(141.333194, 130.572023)"><g><path d="M 28.03125 -0.125 C 27.1875 0.125 25.859375 0.375 24.046875 0.625 C 22.242188 0.882812 20.375 1.015625 18.4375 1.015625 C 16.582031 1.015625 14.914062 0.882812 13.4375 0.625 C 11.96875 0.375 10.726562 -0.125 9.71875 -0.875 C 8.707031 -1.632812 7.925781 -2.664062 7.375 -3.96875 C 6.832031 -5.28125 6.5625 -6.988281 6.5625 -9.09375 L 6.5625 -46.96875 C 6.5625 -48.90625 6.921875 -50.566406 7.640625 -51.953125 C 8.359375 -53.335938 9.390625 -54.578125 10.734375 -55.671875 C 12.078125 -56.765625 13.738281 -57.753906 15.71875 -58.640625 C 17.695312 -59.523438 19.820312 -60.300781 22.09375 -60.96875 C 24.363281 -61.644531 26.71875 -62.171875 29.15625 -62.546875 C 31.601562 -62.929688 34.046875 -63.125 36.484375 -63.125 C 40.523438 -63.125 43.722656 -62.34375 46.078125 -60.78125 C 48.429688 -59.226562 49.609375 -56.6875 49.609375 -53.15625 C 49.609375 -51.976562 49.441406 -50.816406 49.109375 -49.671875 C 48.773438 -48.535156 48.351562 -47.507812 47.84375 -46.59375 C 46.082031 -46.59375 44.273438 -46.503906 42.421875 -46.328125 C 40.566406 -46.160156 38.753906 -45.910156 36.984375 -45.578125 C 35.222656 -45.242188 33.5625 -44.882812 32 -44.5 C 30.445312 -44.125 29.125 -43.679688 28.03125 -43.171875 Z M 28.03125 -0.125 "/></g></g></g><g fill="#ffffff" fill-opacity="1"><g transform="translate(193.190202, 130.572023)"><g><path d="M 28.03125 -21.078125 C 28.03125 -18.890625 28.722656 -17.332031 30.109375 -16.40625 C 31.492188 -15.488281 33.453125 -15.03125 35.984375 -15.03125 C 37.242188 -15.03125 38.546875 -15.132812 39.890625 -15.34375 C 41.242188 -15.550781 42.425781 -15.820312 43.4375 -16.15625 C 44.1875 -15.226562 44.832031 -14.195312 45.375 -13.0625 C 45.925781 -11.925781 46.203125 -10.5625 46.203125 -8.96875 C 46.203125 -5.769531 45.003906 -3.160156 42.609375 -1.140625 C 40.210938 0.878906 35.984375 1.890625 29.921875 1.890625 C 22.515625 1.890625 16.8125 0.207031 12.8125 -3.15625 C 8.8125 -6.519531 6.8125 -11.988281 6.8125 -19.5625 L 6.8125 -73.609375 C 7.738281 -73.859375 9.0625 -74.128906 10.78125 -74.421875 C 12.507812 -74.710938 14.34375 -74.859375 16.28125 -74.859375 C 19.988281 -74.859375 22.875 -74.207031 24.9375 -72.90625 C 27 -71.601562 28.03125 -68.847656 28.03125 -64.640625 L 28.03125 -56.5625 L 44.5625 -56.5625 C 45.070312 -55.632812 45.554688 -54.472656 46.015625 -53.078125 C 46.484375 -51.691406 46.71875 -50.160156 46.71875 -48.484375 C 46.71875 -45.535156 46.0625 -43.40625 44.75 -42.09375 C 43.445312 -40.789062 41.703125 -40.140625 39.515625 -40.140625 L 28.03125 -40.140625 Z M 28.03125 -21.078125 "/></g></g></g><g fill="#ffffff" fill-opacity="1"><g transform="translate(243.659366, 130.572023)"><g><path d="M 28.40625 -0.125 C 27.476562 0.0390625 26.109375 0.269531 24.296875 0.5625 C 22.492188 0.863281 20.664062 1.015625 18.8125 1.015625 C 16.957031 1.015625 15.289062 0.882812 13.8125 0.625 C 12.34375 0.375 11.101562 -0.125 10.09375 -0.875 C 9.082031 -1.632812 8.300781 -2.664062 7.75 -3.96875 C 7.207031 -5.28125 6.9375 -6.988281 6.9375 -9.09375 L 6.9375 -82.3125 C 7.863281 -82.476562 9.234375 -82.707031 11.046875 -83 C 12.859375 -83.300781 14.6875 -83.453125 16.53125 -83.453125 C 18.382812 -83.453125 20.046875 -83.320312 21.515625 -83.0625 C 22.992188 -82.8125 24.238281 -82.304688 25.25 -81.546875 C 26.257812 -80.796875 27.035156 -79.765625 27.578125 -78.453125 C 28.128906 -77.148438 28.40625 -75.445312 28.40625 -73.34375 Z M 28.40625 -0.125 "/></g></g></g><g fill="#ffffff" fill-opacity="1"><g transform="translate(278.987847, 130.572023)"><g><path d="M 39.015625 2.015625 C 34.046875 2.015625 29.4375 1.320312 25.1875 -0.0625 C 20.9375 -1.445312 17.234375 -3.53125 14.078125 -6.3125 C 10.921875 -9.09375 8.4375 -12.585938 6.625 -16.796875 C 4.8125 -21.003906 3.90625 -25.925781 3.90625 -31.5625 C 3.90625 -37.113281 4.8125 -41.890625 6.625 -45.890625 C 8.4375 -49.890625 10.816406 -53.171875 13.765625 -55.734375 C 16.710938 -58.304688 20.078125 -60.203125 23.859375 -61.421875 C 27.648438 -62.640625 31.519531 -63.25 35.46875 -63.25 C 39.9375 -63.25 44 -62.578125 47.65625 -61.234375 C 51.320312 -59.890625 54.476562 -58.035156 57.125 -55.671875 C 59.78125 -53.316406 61.84375 -50.5 63.3125 -47.21875 C 64.789062 -43.9375 65.53125 -40.359375 65.53125 -36.484375 C 65.53125 -33.617188 64.726562 -31.429688 63.125 -29.921875 C 61.519531 -28.410156 59.289062 -27.441406 56.4375 -27.015625 L 25.25 -22.34375 C 26.175781 -19.570312 28.066406 -17.488281 30.921875 -16.09375 C 33.785156 -14.707031 37.070312 -14.015625 40.78125 -14.015625 C 44.226562 -14.015625 47.488281 -14.457031 50.5625 -15.34375 C 53.632812 -16.226562 56.140625 -17.257812 58.078125 -18.4375 C 59.421875 -17.59375 60.554688 -16.410156 61.484375 -14.890625 C 62.410156 -13.378906 62.875 -11.78125 62.875 -10.09375 C 62.875 -6.3125 61.101562 -3.492188 57.5625 -1.640625 C 54.875 -0.210938 51.847656 0.75 48.484375 1.25 C 45.117188 1.757812 41.960938 2.015625 39.015625 2.015625 Z M 35.46875 -47.59375 C 33.457031 -47.59375 31.710938 -47.253906 30.234375 -46.578125 C 28.765625 -45.910156 27.566406 -45.050781 26.640625 -44 C 25.710938 -42.945312 25.015625 -41.765625 24.546875 -40.453125 C 24.085938 -39.148438 23.816406 -37.828125 23.734375 -36.484375 L 45.328125 -40.015625 C 45.066406 -41.703125 44.132812 -43.382812 42.53125 -45.0625 C 40.9375 -46.75 38.582031 -47.59375 35.46875 -47.59375 Z M 35.46875 -47.59375 "/></g></g></g><g fill="#ffffff" fill-opacity="1"><g transform="translate(348.256833, 130.572023)"><g><path d="M 3.90625 -30.671875 C 3.90625 -36.234375 4.75 -41.050781 6.4375 -45.125 C 8.125 -49.207031 10.457031 -52.597656 13.4375 -55.296875 C 16.425781 -57.992188 19.921875 -59.992188 23.921875 -61.296875 C 27.921875 -62.597656 32.234375 -63.25 36.859375 -63.25 C 38.546875 -63.25 40.1875 -63.101562 41.78125 -62.8125 C 43.382812 -62.519531 44.691406 -62.160156 45.703125 -61.734375 L 45.703125 -82.1875 C 46.546875 -82.4375 47.890625 -82.707031 49.734375 -83 C 51.585938 -83.300781 53.484375 -83.453125 55.421875 -83.453125 C 57.273438 -83.453125 58.9375 -83.320312 60.40625 -83.0625 C 61.882812 -82.8125 63.128906 -82.304688 64.140625 -81.546875 C 65.148438 -80.796875 65.90625 -79.765625 66.40625 -78.453125 C 66.914062 -77.148438 67.171875 -75.445312 67.171875 -73.34375 L 67.171875 -13.515625 C 67.171875 -9.554688 65.316406 -6.398438 61.609375 -4.046875 C 59.171875 -2.441406 56.015625 -1.03125 52.140625 0.1875 C 48.265625 1.40625 43.804688 2.015625 38.765625 2.015625 C 33.285156 2.015625 28.378906 1.257812 24.046875 -0.25 C 19.710938 -1.769531 16.050781 -3.957031 13.0625 -6.8125 C 10.070312 -9.675781 7.796875 -13.109375 6.234375 -17.109375 C 4.679688 -21.109375 3.90625 -25.628906 3.90625 -30.671875 Z M 39.765625 -46.453125 C 35.222656 -46.453125 31.726562 -45.144531 29.28125 -42.53125 C 26.84375 -39.925781 25.625 -35.972656 25.625 -30.671875 C 25.625 -25.453125 26.757812 -21.515625 29.03125 -18.859375 C 31.3125 -16.210938 34.597656 -14.890625 38.890625 -14.890625 C 40.398438 -14.890625 41.765625 -15.117188 42.984375 -15.578125 C 44.203125 -16.046875 45.148438 -16.578125 45.828125 -17.171875 L 45.828125 -44.9375 C 44.140625 -45.945312 42.117188 -46.453125 39.765625 -46.453125 Z M 39.765625 -46.453125 "/></g></g></g><g fill="#ffffff" fill-opacity="1"><g transform="translate(422.194141, 130.572023)"><g><path d="M 70.0625 -30.671875 C 70.0625 -25.453125 69.257812 -20.800781 67.65625 -16.71875 C 66.0625 -12.644531 63.8125 -9.21875 60.90625 -6.4375 C 58.007812 -3.65625 54.539062 -1.550781 50.5 -0.125 C 46.457031 1.300781 41.953125 2.015625 36.984375 2.015625 C 32.023438 2.015625 27.523438 1.257812 23.484375 -0.25 C 19.441406 -1.769531 15.96875 -3.9375 13.0625 -6.75 C 10.164062 -9.570312 7.914062 -13.003906 6.3125 -17.046875 C 4.707031 -21.085938 3.90625 -25.628906 3.90625 -30.671875 C 3.90625 -35.640625 4.707031 -40.144531 6.3125 -44.1875 C 7.914062 -48.226562 10.164062 -51.65625 13.0625 -54.46875 C 15.96875 -57.289062 19.441406 -59.457031 23.484375 -60.96875 C 27.523438 -62.488281 32.023438 -63.25 36.984375 -63.25 C 41.953125 -63.25 46.457031 -62.46875 50.5 -60.90625 C 54.539062 -59.351562 58.007812 -57.164062 60.90625 -54.34375 C 63.8125 -51.53125 66.0625 -48.101562 67.65625 -44.0625 C 69.257812 -40.019531 70.0625 -35.554688 70.0625 -30.671875 Z M 25.875 -30.671875 C 25.875 -25.546875 26.863281 -21.613281 28.84375 -18.875 C 30.820312 -16.132812 33.582031 -14.765625 37.125 -14.765625 C 40.65625 -14.765625 43.363281 -16.15625 45.25 -18.9375 C 47.144531 -21.71875 48.09375 -25.628906 48.09375 -30.671875 C 48.09375 -35.722656 47.125 -39.613281 45.1875 -42.34375 C 43.257812 -45.082031 40.523438 -46.453125 36.984375 -46.453125 C 33.453125 -46.453125 30.71875 -45.082031 28.78125 -42.34375 C 26.84375 -39.613281 25.875 -35.722656 25.875 -30.671875 Z M 25.875 -30.671875 "/></g></g></g><g fill="#ffffff" fill-opacity="1"><g transform="translate(494.490151, 130.572023)"><g><path d="M 47.59375 -1.640625 C 46.414062 -0.710938 44.691406 0.0390625 42.421875 0.625 C 40.148438 1.21875 37.582031 1.515625 34.71875 1.515625 C 31.4375 1.515625 28.59375 1.09375 26.1875 0.25 C 23.789062 -0.59375 22.128906 -1.9375 21.203125 -3.78125 C 20.453125 -5.21875 19.550781 -7.21875 18.5 -9.78125 C 17.445312 -12.351562 16.328125 -15.21875 15.140625 -18.375 C 13.960938 -21.53125 12.742188 -24.914062 11.484375 -28.53125 C 10.222656 -32.15625 9.023438 -35.734375 7.890625 -39.265625 C 6.753906 -42.796875 5.722656 -46.203125 4.796875 -49.484375 C 3.867188 -52.765625 3.113281 -55.671875 2.53125 -58.203125 C 3.707031 -59.378906 5.28125 -60.410156 7.25 -61.296875 C 9.226562 -62.179688 11.398438 -62.625 13.765625 -62.625 C 16.710938 -62.625 19.128906 -62.007812 21.015625 -60.78125 C 22.910156 -59.5625 24.320312 -57.269531 25.25 -53.90625 L 30.171875 -34.59375 C 31.097656 -30.800781 31.984375 -27.367188 32.828125 -24.296875 C 33.671875 -21.222656 34.300781 -18.847656 34.71875 -17.171875 L 35.34375 -17.171875 C 36.945312 -23.398438 38.628906 -30.300781 40.390625 -37.875 C 42.160156 -45.445312 43.765625 -52.894531 45.203125 -60.21875 C 46.628906 -60.976562 48.242188 -61.566406 50.046875 -61.984375 C 51.859375 -62.410156 53.609375 -62.625 55.296875 -62.625 C 58.242188 -62.625 60.726562 -61.988281 62.75 -60.71875 C 64.769531 -59.457031 65.78125 -57.269531 65.78125 -54.15625 C 65.78125 -52.8125 65.460938 -50.851562 64.828125 -48.28125 C 64.191406 -45.71875 63.390625 -42.816406 62.421875 -39.578125 C 61.460938 -36.335938 60.328125 -32.90625 59.015625 -29.28125 C 57.710938 -25.664062 56.390625 -22.132812 55.046875 -18.6875 C 53.703125 -15.238281 52.375 -12.019531 51.0625 -9.03125 C 49.757812 -6.039062 48.601562 -3.578125 47.59375 -1.640625 Z M 47.59375 -1.640625 "/></g></g></g><g fill="#ffffff" fill-opacity="1"><g transform="translate(562.623158, 130.572023)"><g><path d="M 39.015625 2.015625 C 34.046875 2.015625 29.4375 1.320312 25.1875 -0.0625 C 20.9375 -1.445312 17.234375 -3.53125 14.078125 -6.3125 C 10.921875 -9.09375 8.4375 -12.585938 6.625 -16.796875 C 4.8125 -21.003906 3.90625 -25.925781 3.90625 -31.5625 C 3.90625 -37.113281 4.8125 -41.890625 6.625 -45.890625 C 8.4375 -49.890625 10.816406 -53.171875 13.765625 -55.734375 C 16.710938 -58.304688 20.078125 -60.203125 23.859375 -61.421875 C 27.648438 -62.640625 31.519531 -63.25 35.46875 -63.25 C 39.9375 -63.25 44 -62.578125 47.65625 -61.234375 C 51.320312 -59.890625 54.476562 -58.035156 57.125 -55.671875 C 59.78125 -53.316406 61.84375 -50.5 63.3125 -47.21875 C 64.789062 -43.9375 65.53125 -40.359375 65.53125 -36.484375 C 65.53125 -33.617188 64.726562 -31.429688 63.125 -29.921875 C 61.519531 -28.410156 59.289062 -27.441406 56.4375 -27.015625 L 25.25 -22.34375 C 26.175781 -19.570312 28.066406 -17.488281 30.921875 -16.09375 C 33.785156 -14.707031 37.070312 -14.015625 40.78125 -14.015625 C 44.226562 -14.015625 47.488281 -14.457031 50.5625 -15.34375 C 53.632812 -16.226562 56.140625 -17.257812 58.078125 -18.4375 C 59.421875 -17.59375 60.554688 -16.410156 61.484375 -14.890625 C 62.410156 -13.378906 62.875 -11.78125 62.875 -10.09375 C 62.875 -6.3125 61.101562 -3.492188 57.5625 -1.640625 C 54.875 -0.210938 51.847656 0.75 48.484375 1.25 C 45.117188 1.757812 41.960938 2.015625 39.015625 2.015625 Z M 35.46875 -47.59375 C 33.457031 -47.59375 31.710938 -47.253906 30.234375 -46.578125 C 28.765625 -45.910156 27.566406 -45.050781 26.640625 -44 C 25.710938 -42.945312 25.015625 -41.765625 24.546875 -40.453125 C 24.085938 -39.148438 23.816406 -37.828125 23.734375 -36.484375 L 45.328125 -40.015625 C 45.066406 -41.703125 44.132812 -43.382812 42.53125 -45.0625 C 40.9375 -46.75 38.582031 -47.59375 35.46875 -47.59375 Z M 35.46875 -47.59375 "/></g></g></g><g fill="#ffffff" fill-opacity="1"><g transform="translate(631.892144, 130.572023)"><g/></g></g><g fill="#ffffff" fill-opacity="1"><g transform="translate(657.126792, 130.572023)"><g><path d="M 47.21875 -61.109375 C 40.738281 -61.109375 35.769531 -59.128906 32.3125 -55.171875 C 28.863281 -51.210938 27.140625 -45.613281 27.140625 -38.375 C 27.140625 -31.050781 29.050781 -25.410156 32.875 -21.453125 C 36.707031 -17.503906 41.867188 -15.53125 48.359375 -15.53125 C 51.804688 -15.53125 54.726562 -15.992188 57.125 -16.921875 C 59.519531 -17.847656 61.816406 -18.898438 64.015625 -20.078125 C 65.441406 -18.898438 66.550781 -17.488281 67.34375 -15.84375 C 68.144531 -14.195312 68.546875 -12.28125 68.546875 -10.09375 C 68.546875 -6.644531 66.628906 -3.722656 62.796875 -1.328125 C 58.972656 1.066406 53.148438 2.265625 45.328125 2.265625 C 39.679688 2.265625 34.375 1.46875 29.40625 -0.125 C 24.445312 -1.726562 20.113281 -4.191406 16.40625 -7.515625 C 12.707031 -10.835938 9.785156 -15.046875 7.640625 -20.140625 C 5.492188 -25.234375 4.421875 -31.3125 4.421875 -38.375 C 4.421875 -44.945312 5.453125 -50.734375 7.515625 -55.734375 C 9.578125 -60.742188 12.394531 -64.972656 15.96875 -68.421875 C 19.550781 -71.878906 23.738281 -74.488281 28.53125 -76.25 C 33.332031 -78.019531 38.46875 -78.90625 43.9375 -78.90625 C 51.675781 -78.90625 57.671875 -77.640625 61.921875 -75.109375 C 66.171875 -72.585938 68.296875 -69.347656 68.296875 -65.390625 C 68.296875 -63.203125 67.75 -61.304688 66.65625 -59.703125 C 65.5625 -58.109375 64.300781 -56.847656 62.875 -55.921875 C 60.6875 -57.359375 58.347656 -58.582031 55.859375 -59.59375 C 53.378906 -60.601562 50.5 -61.109375 47.21875 -61.109375 Z M 47.21875 -61.109375 "/></g></g></g><g fill="#ffffff" fill-opacity="1"><g transform="translate(729.171466, 130.572023)"><g><path d="M 28.40625 -0.125 C 27.476562 0.0390625 26.109375 0.269531 24.296875 0.5625 C 22.492188 0.863281 20.664062 1.015625 18.8125 1.015625 C 16.957031 1.015625 15.289062 0.882812 13.8125 0.625 C 12.34375 0.375 11.101562 -0.125 10.09375 -0.875 C 9.082031 -1.632812 8.300781 -2.664062 7.75 -3.96875 C 7.207031 -5.28125 6.9375 -6.988281 6.9375 -9.09375 L 6.9375 -82.3125 C 7.863281 -82.476562 9.234375 -82.707031 11.046875 -83 C 12.859375 -83.300781 14.6875 -83.453125 16.53125 -83.453125 C 18.382812 -83.453125 20.046875 -83.320312 21.515625 -83.0625 C 22.992188 -82.8125 24.238281 -82.304688 25.25 -81.546875 C 26.257812 -80.796875 27.035156 -79.765625 27.578125 -78.453125 C 28.128906 -77.148438 28.40625 -75.445312 28.40625 -73.34375 Z M 28.40625 -0.125 "/></g></g></g><g fill="#ffffff" fill-opacity="1"><g transform="translate(764.499947, 130.572023)"><g><path d="M 70.0625 -30.671875 C 70.0625 -25.453125 69.257812 -20.800781 67.65625 -16.71875 C 66.0625 -12.644531 63.8125 -9.21875 60.90625 -6.4375 C 58.007812 -3.65625 54.539062 -1.550781 50.5 -0.125 C 46.457031 1.300781 41.953125 2.015625 36.984375 2.015625 C 32.023438 2.015625 27.523438 1.257812 23.484375 -0.25 C 19.441406 -1.769531 15.96875 -3.9375 13.0625 -6.75 C 10.164062 -9.570312 7.914062 -13.003906 6.3125 -17.046875 C 4.707031 -21.085938 3.90625 -25.628906 3.90625 -30.671875 C 3.90625 -35.640625 4.707031 -40.144531 6.3125 -44.1875 C 7.914062 -48.226562 10.164062 -51.65625 13.0625 -54.46875 C 15.96875 -57.289062 19.441406 -59.457031 23.484375 -60.96875 C 27.523438 -62.488281 32.023438 -63.25 36.984375 -63.25 C 41.953125 -63.25 46.457031 -62.46875 50.5 -60.90625 C 54.539062 -59.351562 58.007812 -57.164062 60.90625 -54.34375 C 63.8125 -51.53125 66.0625 -48.101562 67.65625 -44.0625 C 69.257812 -40.019531 70.0625 -35.554688 70.0625 -30.671875 Z M 25.875 -30.671875 C 25.875 -25.546875 26.863281 -21.613281 28.84375 -18.875 C 30.820312 -16.132812 33.582031 -14.765625 37.125 -14.765625 C 40.65625 -14.765625 43.363281 -16.15625 45.25 -18.9375 C 47.144531 -21.71875 48.09375 -25.628906 48.09375 -30.671875 C 48.09375 -35.722656 47.125 -39.613281 45.1875 -42.34375 C 43.257812 -45.082031 40.523438 -46.453125 36.984375 -46.453125 C 33.453125 -46.453125 30.71875 -45.082031 28.78125 -42.34375 C 26.84375 -39.613281 25.875 -35.722656 25.875 -30.671875 Z M 25.875 -30.671875 "/></g></g></g><g fill="#ffffff" fill-opacity="1"><g transform="translate(838.437255, 130.572023)"><g><path d="M 6.5625 -60.46875 C 7.40625 -60.726562 8.726562 -60.984375 10.53125 -61.234375 C 12.34375 -61.484375 14.21875 -61.609375 16.15625 -61.609375 C 18.007812 -61.609375 19.671875 -61.484375 21.140625 -61.234375 C 22.617188 -60.984375 23.863281 -60.476562 24.875 -59.71875 C 25.882812 -58.957031 26.660156 -57.925781 27.203125 -56.625 C 27.753906 -55.320312 28.03125 -53.617188 28.03125 -51.515625 L 28.03125 -24.359375 C 28.03125 -20.910156 28.867188 -18.445312 30.546875 -16.96875 C 32.234375 -15.5 34.675781 -14.765625 37.875 -14.765625 C 39.8125 -14.765625 41.390625 -14.929688 42.609375 -15.265625 C 43.828125 -15.609375 44.773438 -15.945312 45.453125 -16.28125 L 45.453125 -60.46875 C 46.296875 -60.726562 47.617188 -60.984375 49.421875 -61.234375 C 51.234375 -61.484375 53.109375 -61.609375 55.046875 -61.609375 C 56.898438 -61.609375 58.5625 -61.484375 60.03125 -61.234375 C 61.5 -60.984375 62.738281 -60.476562 63.75 -59.71875 C 64.757812 -58.957031 65.535156 -57.925781 66.078125 -56.625 C 66.628906 -55.320312 66.90625 -53.617188 66.90625 -51.515625 L 66.90625 -13.125 C 66.90625 -8.914062 65.140625 -5.757812 61.609375 -3.65625 C 58.660156 -1.8125 55.144531 -0.40625 51.0625 0.5625 C 46.976562 1.53125 42.539062 2.015625 37.75 2.015625 C 33.207031 2.015625 29.019531 1.507812 25.1875 0.5 C 21.351562 -0.507812 18.046875 -2.066406 15.265625 -4.171875 C 12.492188 -6.273438 10.347656 -8.988281 8.828125 -12.3125 C 7.316406 -15.632812 6.5625 -19.648438 6.5625 -24.359375 Z M 6.5625 -60.46875 "/></g></g></g><g fill="#ffffff" fill-opacity="1"><g transform="translate(911.869906, 130.572023)"><g><path d="M 3.90625 -30.671875 C 3.90625 -36.234375 4.75 -41.050781 6.4375 -45.125 C 8.125 -49.207031 10.457031 -52.597656 13.4375 -55.296875 C 16.425781 -57.992188 19.921875 -59.992188 23.921875 -61.296875 C 27.921875 -62.597656 32.234375 -63.25 36.859375 -63.25 C 38.546875 -63.25 40.1875 -63.101562 41.78125 -62.8125 C 43.382812 -62.519531 44.691406 -62.160156 45.703125 -61.734375 L 45.703125 -82.1875 C 46.546875 -82.4375 47.890625 -82.707031 49.734375 -83 C 51.585938 -83.300781 53.484375 -83.453125 55.421875 -83.453125 C 57.273438 -83.453125 58.9375 -83.320312 60.40625 -83.0625 C 61.882812 -82.8125 63.128906 -82.304688 64.140625 -81.546875 C 65.148438 -80.796875 65.90625 -79.765625 66.40625 -78.453125 C 66.914062 -77.148438 67.171875 -75.445312 67.171875 -73.34375 L 67.171875 -13.515625 C 67.171875 -9.554688 65.316406 -6.398438 61.609375 -4.046875 C 59.171875 -2.441406 56.015625 -1.03125 52.140625 0.1875 C 48.265625 1.40625 43.804688 2.015625 38.765625 2.015625 C 33.285156 2.015625 28.378906 1.257812 24.046875 -0.25 C 19.710938 -1.769531 16.050781 -3.957031 13.0625 -6.8125 C 10.070312 -9.675781 7.796875 -13.109375 6.234375 -17.109375 C 4.679688 -21.109375 3.90625 -25.628906 3.90625 -30.671875 Z M 39.765625 -46.453125 C 35.222656 -46.453125 31.726562 -45.144531 29.28125 -42.53125 C 26.84375 -39.925781 25.625 -35.972656 25.625 -30.671875 C 25.625 -25.453125 26.757812 -21.515625 29.03125 -18.859375 C 31.3125 -16.210938 34.597656 -14.890625 38.890625 -14.890625 C 40.398438 -14.890625 41.765625 -15.117188 42.984375 -15.578125 C 44.203125 -16.046875 45.148438 -16.578125 45.828125 -17.171875 L 45.828125 -44.9375 C 44.140625 -45.945312 42.117188 -46.453125 39.765625 -46.453125 Z M 39.765625 -46.453125 "/></g></g></g><g fill="#ffffff" fill-opacity="1"><g transform="translate(0.904575, 304.23073)"><g><path d="M 29.921875 -30.421875 C 26.210938 -31.679688 22.84375 -32.960938 19.8125 -34.265625 C 16.789062 -35.578125 14.1875 -37.15625 12 -39 C 9.8125 -40.851562 8.101562 -43.0625 6.875 -45.625 C 5.65625 -48.195312 5.046875 -51.335938 5.046875 -55.046875 C 5.046875 -62.203125 7.800781 -67.925781 13.3125 -72.21875 C 18.832031 -76.507812 26.554688 -78.65625 36.484375 -78.65625 C 40.109375 -78.65625 43.472656 -78.398438 46.578125 -77.890625 C 49.691406 -77.390625 52.363281 -76.613281 54.59375 -75.5625 C 56.832031 -74.507812 58.582031 -73.160156 59.84375 -71.515625 C 61.101562 -69.878906 61.734375 -67.96875 61.734375 -65.78125 C 61.734375 -63.59375 61.226562 -61.71875 60.21875 -60.15625 C 59.207031 -58.601562 57.988281 -57.28125 56.5625 -56.1875 C 54.707031 -57.363281 52.222656 -58.390625 49.109375 -59.265625 C 45.992188 -60.148438 42.585938 -60.59375 38.890625 -60.59375 C 35.097656 -60.59375 32.316406 -60.066406 30.546875 -59.015625 C 28.785156 -57.960938 27.90625 -56.640625 27.90625 -55.046875 C 27.90625 -53.785156 28.453125 -52.753906 29.546875 -51.953125 C 30.640625 -51.148438 32.28125 -50.414062 34.46875 -49.75 L 41.15625 -47.59375 C 49.070312 -45.070312 55.15625 -41.851562 59.40625 -37.9375 C 63.65625 -34.019531 65.78125 -28.695312 65.78125 -21.96875 C 65.78125 -14.8125 62.957031 -9.023438 57.3125 -4.609375 C 51.675781 -0.191406 43.390625 2.015625 32.453125 2.015625 C 28.578125 2.015625 24.976562 1.695312 21.65625 1.0625 C 18.332031 0.4375 15.425781 -0.484375 12.9375 -1.703125 C 10.457031 -2.921875 8.519531 -4.4375 7.125 -6.25 C 5.738281 -8.0625 5.046875 -10.144531 5.046875 -12.5 C 5.046875 -14.9375 5.757812 -17.019531 7.1875 -18.75 C 8.625 -20.476562 10.1875 -21.800781 11.875 -22.71875 C 14.226562 -20.875 17.109375 -19.273438 20.515625 -17.921875 C 23.921875 -16.578125 27.644531 -15.90625 31.6875 -15.90625 C 35.8125 -15.90625 38.710938 -16.535156 40.390625 -17.796875 C 42.078125 -19.054688 42.921875 -20.53125 42.921875 -22.21875 C 42.921875 -23.90625 42.25 -25.1875 40.90625 -26.0625 C 39.5625 -26.945312 37.664062 -27.8125 35.21875 -28.65625 Z M 29.921875 -30.421875 "/></g></g></g><g fill="#ffffff" fill-opacity="1"><g transform="translate(70.678352, 304.23073)"><g><path d="M 70.0625 -30.671875 C 70.0625 -25.453125 69.257812 -20.800781 67.65625 -16.71875 C 66.0625 -12.644531 63.8125 -9.21875 60.90625 -6.4375 C 58.007812 -3.65625 54.539062 -1.550781 50.5 -0.125 C 46.457031 1.300781 41.953125 2.015625 36.984375 2.015625 C 32.023438 2.015625 27.523438 1.257812 23.484375 -0.25 C 19.441406 -1.769531 15.96875 -3.9375 13.0625 -6.75 C 10.164062 -9.570312 7.914062 -13.003906 6.3125 -17.046875 C 4.707031 -21.085938 3.90625 -25.628906 3.90625 -30.671875 C 3.90625 -35.640625 4.707031 -40.144531 6.3125 -44.1875 C 7.914062 -48.226562 10.164062 -51.65625 13.0625 -54.46875 C 15.96875 -57.289062 19.441406 -59.457031 23.484375 -60.96875 C 27.523438 -62.488281 32.023438 -63.25 36.984375 -63.25 C 41.953125 -63.25 46.457031 -62.46875 50.5 -60.90625 C 54.539062 -59.351562 58.007812 -57.164062 60.90625 -54.34375 C 63.8125 -51.53125 66.0625 -48.101562 67.65625 -44.0625 C 69.257812 -40.019531 70.0625 -35.554688 70.0625 -30.671875 Z M 25.875 -30.671875 C 25.875 -25.546875 26.863281 -21.613281 28.84375 -18.875 C 30.820312 -16.132812 33.582031 -14.765625 37.125 -14.765625 C 40.65625 -14.765625 43.363281 -16.15625 45.25 -18.9375 C 47.144531 -21.71875 48.09375 -25.628906 48.09375 -30.671875 C 48.09375 -35.722656 47.125 -39.613281 45.1875 -42.34375 C 43.257812 -45.082031 40.523438 -46.453125 36.984375 -46.453125 C 33.453125 -46.453125 30.71875 -45.082031 28.78125 -42.34375 C 26.84375 -39.613281 25.875 -35.722656 25.875 -30.671875 Z M 25.875 -30.671875 "/></g></g></g><g fill="#ffffff" fill-opacity="1"><g transform="translate(144.61566, 304.23073)"><g><path d="M 28.40625 -0.125 C 27.476562 0.0390625 26.109375 0.269531 24.296875 0.5625 C 22.492188 0.863281 20.664062 1.015625 18.8125 1.015625 C 16.957031 1.015625 15.289062 0.882812 13.8125 0.625 C 12.34375 0.375 11.101562 -0.125 10.09375 -0.875 C 9.082031 -1.632812 8.300781 -2.664062 7.75 -3.96875 C 7.207031 -5.28125 6.9375 -6.988281 6.9375 -9.09375 L 6.9375 -82.3125 C 7.863281 -82.476562 9.234375 -82.707031 11.046875 -83 C 12.859375 -83.300781 14.6875 -83.453125 16.53125 -83.453125 C 18.382812 -83.453125 20.046875 -83.320312 21.515625 -83.0625 C 22.992188 -82.8125 24.238281 -82.304688 25.25 -81.546875 C 26.257812 -80.796875 27.035156 -79.765625 27.578125 -78.453125 C 28.128906 -77.148438 28.40625 -75.445312 28.40625 -73.34375 Z M 28.40625 -0.125 "/></g></g></g><g fill="#ffffff" fill-opacity="1"><g transform="translate(179.944142, 304.23073)"><g><path d="M 6.5625 -60.46875 C 7.40625 -60.726562 8.726562 -60.984375 10.53125 -61.234375 C 12.34375 -61.484375 14.21875 -61.609375 16.15625 -61.609375 C 18.007812 -61.609375 19.671875 -61.484375 21.140625 -61.234375 C 22.617188 -60.984375 23.863281 -60.476562 24.875 -59.71875 C 25.882812 -58.957031 26.660156 -57.925781 27.203125 -56.625 C 27.753906 -55.320312 28.03125 -53.617188 28.03125 -51.515625 L 28.03125 -24.359375 C 28.03125 -20.910156 28.867188 -18.445312 30.546875 -16.96875 C 32.234375 -15.5 34.675781 -14.765625 37.875 -14.765625 C 39.8125 -14.765625 41.390625 -14.929688 42.609375 -15.265625 C 43.828125 -15.609375 44.773438 -15.945312 45.453125 -16.28125 L 45.453125 -60.46875 C 46.296875 -60.726562 47.617188 -60.984375 49.421875 -61.234375 C 51.234375 -61.484375 53.109375 -61.609375 55.046875 -61.609375 C 56.898438 -61.609375 58.5625 -61.484375 60.03125 -61.234375 C 61.5 -60.984375 62.738281 -60.476562 63.75 -59.71875 C 64.757812 -58.957031 65.535156 -57.925781 66.078125 -56.625 C 66.628906 -55.320312 66.90625 -53.617188 66.90625 -51.515625 L 66.90625 -13.125 C 66.90625 -8.914062 65.140625 -5.757812 61.609375 -3.65625 C 58.660156 -1.8125 55.144531 -0.40625 51.0625 0.5625 C 46.976562 1.53125 42.539062 2.015625 37.75 2.015625 C 33.207031 2.015625 29.019531 1.507812 25.1875 0.5 C 21.351562 -0.507812 18.046875 -2.066406 15.265625 -4.171875 C 12.492188 -6.273438 10.347656 -8.988281 8.828125 -12.3125 C 7.316406 -15.632812 6.5625 -19.648438 6.5625 -24.359375 Z M 6.5625 -60.46875 "/></g></g></g><g fill="#ffffff" fill-opacity="1"><g transform="translate(253.376792, 304.23073)"><g><path d="M 28.03125 -21.078125 C 28.03125 -18.890625 28.722656 -17.332031 30.109375 -16.40625 C 31.492188 -15.488281 33.453125 -15.03125 35.984375 -15.03125 C 37.242188 -15.03125 38.546875 -15.132812 39.890625 -15.34375 C 41.242188 -15.550781 42.425781 -15.820312 43.4375 -16.15625 C 44.1875 -15.226562 44.832031 -14.195312 45.375 -13.0625 C 45.925781 -11.925781 46.203125 -10.5625 46.203125 -8.96875 C 46.203125 -5.769531 45.003906 -3.160156 42.609375 -1.140625 C 40.210938 0.878906 35.984375 1.890625 29.921875 1.890625 C 22.515625 1.890625 16.8125 0.207031 12.8125 -3.15625 C 8.8125 -6.519531 6.8125 -11.988281 6.8125 -19.5625 L 6.8125 -73.609375 C 7.738281 -73.859375 9.0625 -74.128906 10.78125 -74.421875 C 12.507812 -74.710938 14.34375 -74.859375 16.28125 -74.859375 C 19.988281 -74.859375 22.875 -74.207031 24.9375 -72.90625 C 27 -71.601562 28.03125 -68.847656 28.03125 -64.640625 L 28.03125 -56.5625 L 44.5625 -56.5625 C 45.070312 -55.632812 45.554688 -54.472656 46.015625 -53.078125 C 46.484375 -51.691406 46.71875 -50.160156 46.71875 -48.484375 C 46.71875 -45.535156 46.0625 -43.40625 44.75 -42.09375 C 43.445312 -40.789062 41.703125 -40.140625 39.515625 -40.140625 L 28.03125 -40.140625 Z M 28.03125 -21.078125 "/></g></g></g><g fill="#ffffff" fill-opacity="1"><g transform="translate(303.845956, 304.23073)"><g><path d="M 6.0625 -78.40625 C 6.0625 -81.601562 7.132812 -84.296875 9.28125 -86.484375 C 11.425781 -88.671875 14.265625 -89.765625 17.796875 -89.765625 C 21.335938 -89.765625 24.179688 -88.671875 26.328125 -86.484375 C 28.472656 -84.296875 29.546875 -81.601562 29.546875 -78.40625 C 29.546875 -75.207031 28.472656 -72.507812 26.328125 -70.3125 C 24.179688 -68.125 21.335938 -67.03125 17.796875 -67.03125 C 14.265625 -67.03125 11.425781 -68.125 9.28125 -70.3125 C 7.132812 -72.507812 6.0625 -75.207031 6.0625 -78.40625 Z M 28.53125 -0.125 C 27.601562 0.0390625 26.234375 0.269531 24.421875 0.5625 C 22.617188 0.863281 20.789062 1.015625 18.9375 1.015625 C 17.082031 1.015625 15.414062 0.882812 13.9375 0.625 C 12.46875 0.375 11.226562 -0.125 10.21875 -0.875 C 9.21875 -1.632812 8.441406 -2.664062 7.890625 -3.96875 C 7.335938 -5.28125 7.0625 -6.988281 7.0625 -9.09375 L 7.0625 -60.46875 C 7.988281 -60.632812 9.359375 -60.863281 11.171875 -61.15625 C 12.984375 -61.457031 14.816406 -61.609375 16.671875 -61.609375 C 18.515625 -61.609375 20.171875 -61.484375 21.640625 -61.234375 C 23.117188 -60.984375 24.363281 -60.476562 25.375 -59.71875 C 26.382812 -58.957031 27.160156 -57.925781 27.703125 -56.625 C 28.253906 -55.320312 28.53125 -53.617188 28.53125 -51.515625 Z M 28.53125 -0.125 "/></g></g></g><g fill="#ffffff" fill-opacity="1"><g transform="translate(339.4267, 304.23073)"><g><path d="M 70.0625 -30.671875 C 70.0625 -25.453125 69.257812 -20.800781 67.65625 -16.71875 C 66.0625 -12.644531 63.8125 -9.21875 60.90625 -6.4375 C 58.007812 -3.65625 54.539062 -1.550781 50.5 -0.125 C 46.457031 1.300781 41.953125 2.015625 36.984375 2.015625 C 32.023438 2.015625 27.523438 1.257812 23.484375 -0.25 C 19.441406 -1.769531 15.96875 -3.9375 13.0625 -6.75 C 10.164062 -9.570312 7.914062 -13.003906 6.3125 -17.046875 C 4.707031 -21.085938 3.90625 -25.628906 3.90625 -30.671875 C 3.90625 -35.640625 4.707031 -40.144531 6.3125 -44.1875 C 7.914062 -48.226562 10.164062 -51.65625 13.0625 -54.46875 C 15.96875 -57.289062 19.441406 -59.457031 23.484375 -60.96875 C 27.523438 -62.488281 32.023438 -63.25 36.984375 -63.25 C 41.953125 -63.25 46.457031 -62.46875 50.5 -60.90625 C 54.539062 -59.351562 58.007812 -57.164062 60.90625 -54.34375 C 63.8125 -51.53125 66.0625 -48.101562 67.65625 -44.0625 C 69.257812 -40.019531 70.0625 -35.554688 70.0625 -30.671875 Z M 25.875 -30.671875 C 25.875 -25.546875 26.863281 -21.613281 28.84375 -18.875 C 30.820312 -16.132812 33.582031 -14.765625 37.125 -14.765625 C 40.65625 -14.765625 43.363281 -16.15625 45.25 -18.9375 C 47.144531 -21.71875 48.09375 -25.628906 48.09375 -30.671875 C 48.09375 -35.722656 47.125 -39.613281 45.1875 -42.34375 C 43.257812 -45.082031 40.523438 -46.453125 36.984375 -46.453125 C 33.453125 -46.453125 30.71875 -45.082031 28.78125 -42.34375 C 26.84375 -39.613281 25.875 -35.722656 25.875 -30.671875 Z M 25.875 -30.671875 "/></g></g></g><g fill="#ffffff" fill-opacity="1"><g transform="translate(413.364009, 304.23073)"><g><path d="M 45.453125 -38.890625 C 45.453125 -41.492188 44.710938 -43.40625 43.234375 -44.625 C 41.765625 -45.84375 39.769531 -46.453125 37.25 -46.453125 C 35.5625 -46.453125 33.894531 -46.242188 32.25 -45.828125 C 30.613281 -45.410156 29.207031 -44.78125 28.03125 -43.9375 L 28.03125 -0.125 C 27.1875 0.125 25.859375 0.375 24.046875 0.625 C 22.242188 0.882812 20.375 1.015625 18.4375 1.015625 C 16.582031 1.015625 14.914062 0.882812 13.4375 0.625 C 11.96875 0.375 10.726562 -0.125 9.71875 -0.875 C 8.707031 -1.632812 7.925781 -2.664062 7.375 -3.96875 C 6.832031 -5.28125 6.5625 -6.988281 6.5625 -9.09375 L 6.5625 -46.96875 C 6.5625 -49.238281 7.046875 -51.085938 8.015625 -52.515625 C 8.984375 -53.953125 10.3125 -55.257812 12 -56.4375 C 14.851562 -58.457031 18.445312 -60.097656 22.78125 -61.359375 C 27.125 -62.617188 31.945312 -63.25 37.25 -63.25 C 46.757812 -63.25 54.078125 -61.164062 59.203125 -57 C 64.335938 -52.832031 66.90625 -47.046875 66.90625 -39.640625 L 66.90625 -0.125 C 66.070312 0.125 64.75 0.375 62.9375 0.625 C 61.125 0.882812 59.25 1.015625 57.3125 1.015625 C 55.46875 1.015625 53.804688 0.882812 52.328125 0.625 C 50.859375 0.375 49.617188 -0.125 48.609375 -0.875 C 47.597656 -1.632812 46.816406 -2.664062 46.265625 -3.96875 C 45.722656 -5.28125 45.453125 -6.988281 45.453125 -9.09375 Z M 45.453125 -38.890625 "/></g></g></g><g fill="#ffffff" fill-opacity="1"><g transform="translate(486.922791, 304.23073)"><g><path d="M 58.328125 -18.3125 C 58.328125 -11.914062 55.925781 -6.90625 51.125 -3.28125 C 46.332031 0.332031 39.265625 2.140625 29.921875 2.140625 C 26.390625 2.140625 23.109375 1.882812 20.078125 1.375 C 17.046875 0.875 14.457031 0.0976562 12.3125 -0.953125 C 10.164062 -2.003906 8.476562 -3.328125 7.25 -4.921875 C 6.03125 -6.523438 5.421875 -8.421875 5.421875 -10.609375 C 5.421875 -12.628906 5.84375 -14.332031 6.6875 -15.71875 C 7.53125 -17.101562 8.539062 -18.257812 9.71875 -19.1875 C 12.15625 -17.84375 14.953125 -16.644531 18.109375 -15.59375 C 21.265625 -14.539062 24.90625 -14.015625 29.03125 -14.015625 C 31.644531 -14.015625 33.644531 -14.390625 35.03125 -15.140625 C 36.425781 -15.898438 37.125 -16.914062 37.125 -18.1875 C 37.125 -19.363281 36.617188 -20.285156 35.609375 -20.953125 C 34.597656 -21.628906 32.910156 -22.175781 30.546875 -22.59375 L 26.765625 -23.359375 C 19.441406 -24.785156 13.988281 -27.035156 10.40625 -30.109375 C 6.832031 -33.179688 5.046875 -37.578125 5.046875 -43.296875 C 5.046875 -46.410156 5.71875 -49.226562 7.0625 -51.75 C 8.414062 -54.28125 10.3125 -56.382812 12.75 -58.0625 C 15.1875 -59.75 18.109375 -61.054688 21.515625 -61.984375 C 24.929688 -62.910156 28.703125 -63.375 32.828125 -63.375 C 35.941406 -63.375 38.863281 -63.140625 41.59375 -62.671875 C 44.332031 -62.210938 46.710938 -61.519531 48.734375 -60.59375 C 50.753906 -59.675781 52.351562 -58.476562 53.53125 -57 C 54.707031 -55.53125 55.296875 -53.785156 55.296875 -51.765625 C 55.296875 -49.828125 54.9375 -48.160156 54.21875 -46.765625 C 53.507812 -45.378906 52.609375 -44.222656 51.515625 -43.296875 C 50.835938 -43.722656 49.820312 -44.164062 48.46875 -44.625 C 47.125 -45.09375 45.648438 -45.515625 44.046875 -45.890625 C 42.453125 -46.265625 40.832031 -46.578125 39.1875 -46.828125 C 37.550781 -47.085938 36.0625 -47.21875 34.71875 -47.21875 C 31.9375 -47.21875 29.785156 -46.898438 28.265625 -46.265625 C 26.753906 -45.640625 26 -44.648438 26 -43.296875 C 26 -42.378906 26.421875 -41.625 27.265625 -41.03125 C 28.109375 -40.4375 29.707031 -39.890625 32.0625 -39.390625 L 35.984375 -38.5 C 44.054688 -36.65625 49.796875 -34.109375 53.203125 -30.859375 C 56.617188 -27.617188 58.328125 -23.4375 58.328125 -18.3125 Z M 58.328125 -18.3125 "/></g></g></g></g></g></svg>